<svg id="Layer_1" data-name="Layer 1" xmlns="http://www.w3.org/2000/svg" viewBox="0 0 24 24"><defs><style>.cls-1{fill:#d7410b;}.cls-2{fill:#0060a9;}</style></defs><title>Untitled-2</title><path class="cls-1" d="M20.49,3.51a12,12,0,1,0,0,17A12,12,0,0,0,20.49,3.51ZM4.84,4.84A10.13,10.13,0,0,1,17.67,3.61L3.61,17.67A10.13,10.13,0,0,1,4.84,4.84ZM19.16,19.16A10.13,10.13,0,0,1,6.33,20.39L20.39,6.33A10.14,10.14,0,0,1,19.16,19.16Z"/><g id="g1628"><g id="g1630"><path id="path1632" class="cls-2" d="M11.26,8.25A2.26,2.26,0,1,0,9,6,2.26,2.26,0,0,0,11.26,8.25Z"/><path id="path1634" class="cls-2" d="M11.26,6"/></g><path id="path1636" class="cls-2" d="M11.26,13H8.87V11.25L7,13.09A0.78,0.78,0,1,1,5.93,12L9,9a1.23,1.23,0,0,1,.94-0.4H12.6a1.29,1.29,0,0,1,1,.4l3.06,3.06a0.77,0.77,0,1,1-1.12,1.06l-1.88-1.88V13H11.26Z"/><path id="path1638" class="cls-2" d="M13.62,13.87l-1.8,1.79L13.15,17,11.8,18.33a0.79,0.79,0,1,0,1.13,1.11l2.14-2.22a1.35,1.35,0,0,0,.09-1.82Z"/><path id="path1640" class="cls-2" d="M8.87,13.87l1.8,1.79L9.35,17l1.35,1.35a0.79,0.79,0,1,1-1.13,1.11L7.44,17.23a1.35,1.35,0,0,1-.09-1.82Z"/></g></svg>