<svg id="Layer_1" data-name="Layer 1" xmlns="http://www.w3.org/2000/svg" viewBox="0 0 24.67 24.67"><defs><style>.cls-1{fill:#666;}.cls-2{fill:#fff;}</style></defs><title>blocked</title><rect class="cls-1" width="24.67" height="24.67" rx="0.5" ry="0.5"/><path class="cls-2" d="M16.7,8.92H16V7.43a3.72,3.72,0,1,0-7.44,0V8.92H7.77A1.49,1.49,0,0,0,6.29,10.4v7.44a1.49,1.49,0,0,0,1.49,1.49H16.7a1.49,1.49,0,0,0,1.49-1.49V10.4A1.49,1.49,0,0,0,16.7,8.92ZM12.24,16a1.86,1.86,0,1,1,1.86-1.86A1.87,1.87,0,0,1,12.24,16Zm2.31-7.07H9.93V7.43a2.31,2.31,0,0,1,4.61,0V8.92Z"/></svg>