<?xml version="1.0" encoding="utf-8"?>
<!-- Generator: Adobe Illustrator 19.2.1, SVG Export Plug-In . SVG Version: 6.00 Build 0)  -->
<svg version="1.1" id="Layer_1" xmlns="http://www.w3.org/2000/svg" xmlns:xlink="http://www.w3.org/1999/xlink" x="0px" y="0px"
	 viewBox="0 0 14.1 20" style="enable-background:new 0 0 14.1 20;" xml:space="preserve">
<style type="text/css">
	.st0{fill:#0060A9;}
</style>
<g id="g1628_8_">
	<g id="g1630_8_">
		<path id="path1632_8_" class="st0" d="M7,5.6c1.6,0,2.8-1.3,2.8-2.8C9.9,1.3,8.6,0,7,0C5.5,0,4.2,1.3,4.2,2.8
			C4.2,4.4,5.5,5.6,7,5.6z"/>
		<path id="path1634_8_" class="st0" d="M7,2.8"/>
	</g>
	<path id="path1636_8_" class="st0" d="M7,11.6H4V9.4l-2.3,2.3c-1,1-2.4-0.3-1.4-1.3l3.8-3.8c0.3-0.3,0.6-0.5,1.2-0.5H7h0h1.7
		c0.5,0,0.9,0.2,1.2,0.5l3.8,3.8c1,1-0.5,2.3-1.4,1.3L10,9.4v2.2H7L7,11.6z"/>
	<path id="path1638_8_" class="st0" d="M10,12.7l-2.2,2.2l1.6,1.6l-1.7,1.7c-1,1,0.4,2.4,1.4,1.4l2.7-2.8c0.6-0.6,0.7-1.7,0.1-2.3
		C11.9,14.6,10,12.7,10,12.7z"/>
	<path id="path1640_8_" class="st0" d="M4,12.7l2.2,2.2l-1.6,1.6l1.7,1.7c1,1-0.4,2.4-1.4,1.4l-2.7-2.8c-0.6-0.6-0.7-1.7-0.1-2.3
		C2.1,14.6,4,12.7,4,12.7z"/>
</g>
</svg>
