<svg id="Layer_1" data-name="Layer 1" xmlns="http://www.w3.org/2000/svg" viewBox="0 0 25.67 25.67"><defs><style>.cls-1{fill:#fff;stroke:gray;stroke-miterlimit:10;}.cls-2{opacity:0.78;}.cls-3{fill:#666;}</style></defs><title>unusable</title><rect class="cls-1" x="0.5" y="0.5" width="24.67" height="24.67" rx="0.5" ry="0.5"/><g class="cls-2"><path class="cls-3" d="M17.2,9.64H16.46V8.15A3.72,3.72,0,1,0,9,8.15V9.64H8.27a1.49,1.49,0,0,0-1.49,1.49v7.44a1.49,1.49,0,0,0,1.49,1.49H17.2a1.49,1.49,0,0,0,1.49-1.49V11.12A1.49,1.49,0,0,0,17.2,9.64ZM12.74,16.7a1.86,1.86,0,1,1,1.86-1.86A1.87,1.87,0,0,1,12.74,16.7ZM15,9.64H10.43V8.15a2.31,2.31,0,0,1,4.61,0V9.64Z"/></g></svg>